<?xml version="1.0" encoding="UTF-8" standalone="no"?>
<!DOCTYPE svg PUBLIC "-//W3C//DTD SVG 1.1//EN"
 "http://www.w3.org/Graphics/SVG/1.1/DTD/svg11.dtd">
<!-- Generated by graphviz version 12.2.1 (20241206.2353)
 -->
<!-- Pages: 1 -->
<svg width="436pt" height="221pt"
 viewBox="0.00 0.00 435.88 221.00" xmlns="http://www.w3.org/2000/svg" xmlns:xlink="http://www.w3.org/1999/xlink">
<g id="graph0" class="graph" transform="scale(1 1) rotate(0) translate(4 217)">
<polygon fill="white" stroke="none" points="-4,4 -4,-217 431.88,-217 431.88,4 -4,4"/>
<!-- 0 -->
<g id="node1" class="node">
<title>0</title>
<ellipse fill="none" stroke="black" cx="91.27" cy="-106.5" rx="44.19" ry="18"/>
<text text-anchor="middle" x="91.27" y="-101.45" font-family="Times,serif" font-size="14.00">/tmp/one</text>
</g>
<!-- 5 -->
<g id="node6" class="node">
<title>5</title>
<ellipse fill="none" stroke="black" cx="91.27" cy="-18" rx="27" ry="18"/>
<text text-anchor="middle" x="91.27" y="-12.95" font-family="Times,serif" font-size="14.00">ssh</text>
</g>
<!-- 0&#45;&gt;5 -->
<g id="edge5" class="edge">
<title>0&#45;&gt;5</title>
<path fill="none" stroke="black" d="M91.27,-88.41C91.27,-76.76 91.27,-61.05 91.27,-47.52"/>
<polygon fill="black" stroke="black" points="94.77,-47.86 91.27,-37.86 87.77,-47.86 94.77,-47.86"/>
<text text-anchor="middle" x="108.9" y="-57.2" font-family="Times,serif" font-size="14.00">Notify</text>
</g>
<!-- 1 -->
<g id="node2" class="node">
<title>1</title>
<ellipse fill="none" stroke="black" cx="305.27" cy="-195" rx="44.7" ry="18"/>
<text text-anchor="middle" x="305.27" y="-189.95" font-family="Times,serif" font-size="14.00">/tmp/two</text>
</g>
<!-- 2 -->
<g id="node3" class="node">
<title>2</title>
<ellipse fill="none" stroke="black" cx="219.27" cy="-106.5" rx="65.68" ry="18"/>
<text text-anchor="middle" x="219.27" y="-101.45" font-family="Times,serif" font-size="14.00">/tmp/two/three</text>
</g>
<!-- 1&#45;&gt;2 -->
<g id="edge1" class="edge">
<title>1&#45;&gt;2</title>
<path fill="none" stroke="black" d="M289.1,-177.73C276.41,-164.97 258.53,-146.98 244.04,-132.41"/>
<polygon fill="black" stroke="black" points="246.56,-129.98 237.03,-125.36 241.6,-134.92 246.56,-129.98"/>
<text text-anchor="middle" x="290.98" y="-145.7" font-family="Times,serif" font-size="14.00">Provide</text>
</g>
<!-- 3 -->
<g id="node4" class="node">
<title>3</title>
<ellipse fill="none" stroke="black" cx="365.27" cy="-106.5" rx="62.61" ry="18"/>
<text text-anchor="middle" x="365.27" y="-101.45" font-family="Times,serif" font-size="14.00">/tmp/two/four</text>
</g>
<!-- 1&#45;&gt;3 -->
<g id="edge2" class="edge">
<title>1&#45;&gt;3</title>
<path fill="none" stroke="black" d="M316.84,-177.32C325.42,-164.96 337.28,-147.86 347.11,-133.68"/>
<polygon fill="black" stroke="black" points="349.85,-135.88 352.67,-125.67 344.1,-131.89 349.85,-135.88"/>
<text text-anchor="middle" x="361.65" y="-145.7" font-family="Times,serif" font-size="14.00">Provide</text>
</g>
<!-- 4 -->
<g id="node5" class="node">
<title>4</title>
<ellipse fill="none" stroke="black" cx="270.27" cy="-18" rx="31.9" ry="18"/>
<text text-anchor="middle" x="270.27" y="-12.95" font-family="Times,serif" font-size="14.00">nginx</text>
</g>
<!-- 2&#45;&gt;4 -->
<g id="edge3" class="edge">
<title>2&#45;&gt;4</title>
<path fill="none" stroke="black" d="M229.35,-88.41C236.64,-76.05 246.62,-59.12 254.9,-45.08"/>
<polygon fill="black" stroke="black" points="257.73,-47.16 259.79,-36.77 251.7,-43.61 257.73,-47.16"/>
<text text-anchor="middle" x="266.97" y="-57.2" font-family="Times,serif" font-size="14.00">Notify</text>
</g>
<!-- 3&#45;&gt;4 -->
<g id="edge4" class="edge">
<title>3&#45;&gt;4</title>
<path fill="none" stroke="black" d="M346.96,-88.82C332.22,-75.4 311.35,-56.41 295.11,-41.62"/>
<polygon fill="black" stroke="black" points="297.5,-39.06 287.75,-34.91 292.79,-44.23 297.5,-39.06"/>
<text text-anchor="middle" x="343.91" y="-57.2" font-family="Times,serif" font-size="14.00">Notify</text>
</g>
<!-- 6 -->
<g id="node7" class="node">
<title>6</title>
<ellipse fill="none" stroke="black" cx="91.27" cy="-195" rx="91.27" ry="18"/>
<text text-anchor="middle" x="91.27" y="-189.95" font-family="Times,serif" font-size="14.00">/root/${scripts}/yo.sh</text>
</g>
<!-- 6&#45;&gt;0 -->
<g id="edge6" class="edge">
<title>6&#45;&gt;0</title>
<path fill="none" stroke="black" d="M91.27,-176.91C91.27,-165.26 91.27,-149.55 91.27,-136.02"/>
<polygon fill="black" stroke="black" points="94.77,-136.36 91.27,-126.36 87.77,-136.36 94.77,-136.36"/>
<text text-anchor="middle" x="112.27" y="-145.7" font-family="Times,serif" font-size="14.00">Provide</text>
</g>
</g>
</svg>
