<?xml version="1.0" encoding="UTF-8" standalone="no"?>
<!DOCTYPE svg PUBLIC "-//W3C//DTD SVG 1.1//EN"
 "http://www.w3.org/Graphics/SVG/1.1/DTD/svg11.dtd">
<!-- Generated by graphviz version 12.2.1 (20241206.2353)
 -->
<!-- Pages: 1 -->
<svg width="648pt" height="221pt"
 viewBox="0.00 0.00 648.11 221.00" xmlns="http://www.w3.org/2000/svg" xmlns:xlink="http://www.w3.org/1999/xlink">
<g id="graph0" class="graph" transform="scale(1 1) rotate(0) translate(4 217)">
<polygon fill="white" stroke="none" points="-4,4 -4,-217 644.11,-217 644.11,4 -4,4"/>
<!-- 0 -->
<g id="node1" class="node">
<title>0</title>
<ellipse fill="none" stroke="black" cx="59.03" cy="-106.5" rx="59.03" ry="18"/>
<text text-anchor="middle" x="59.03" y="-101.45" font-family="Times,serif" font-size="14.00">Foo::Bar[yo]</text>
</g>
<!-- 6 -->
<g id="node7" class="node">
<title>6</title>
<ellipse fill="none" stroke="black" cx="109.03" cy="-18" rx="56.47" ry="18"/>
<text text-anchor="middle" x="109.03" y="-12.95" font-family="Times,serif" font-size="14.00">Service[ssh]</text>
</g>
<!-- 0&#45;&gt;6 -->
<g id="edge7" class="edge">
<title>0&#45;&gt;6</title>
<path fill="none" stroke="black" d="M68.91,-88.41C75.96,-76.21 85.59,-59.55 93.64,-45.62"/>
<polygon fill="black" stroke="black" points="96.44,-47.77 98.41,-37.36 90.38,-44.27 96.44,-47.77"/>
<text text-anchor="middle" x="106.13" y="-57.2" font-family="Times,serif" font-size="14.00">Notify</text>
</g>
<!-- 1 -->
<g id="node2" class="node">
<title>1</title>
<ellipse fill="none" stroke="black" cx="201.03" cy="-106.5" rx="64.66" ry="18"/>
<text text-anchor="middle" x="201.03" y="-101.45" font-family="Times,serif" font-size="14.00">File[/tmp/one]</text>
</g>
<!-- 1&#45;&gt;6 -->
<g id="edge5" class="edge">
<title>1&#45;&gt;6</title>
<path fill="none" stroke="black" d="M183.29,-88.82C169.46,-75.82 150.05,-57.57 134.55,-43"/>
<polygon fill="black" stroke="black" points="137.19,-40.67 127.5,-36.37 132.39,-45.77 137.19,-40.67"/>
<text text-anchor="middle" x="180.89" y="-57.2" font-family="Times,serif" font-size="14.00">Notify</text>
</g>
<!-- 2 -->
<g id="node3" class="node">
<title>2</title>
<ellipse fill="none" stroke="black" cx="478.03" cy="-195" rx="65.17" ry="18"/>
<text text-anchor="middle" x="478.03" y="-189.95" font-family="Times,serif" font-size="14.00">File[/tmp/two]</text>
</g>
<!-- 3 -->
<g id="node4" class="node">
<title>3</title>
<ellipse fill="none" stroke="black" cx="370.03" cy="-106.5" rx="86.15" ry="18"/>
<text text-anchor="middle" x="370.03" y="-101.45" font-family="Times,serif" font-size="14.00">File[/tmp/two/three]</text>
</g>
<!-- 2&#45;&gt;3 -->
<g id="edge1" class="edge">
<title>2&#45;&gt;3</title>
<path fill="none" stroke="black" d="M457.46,-177.53C441.13,-164.44 418.06,-145.97 399.72,-131.28"/>
<polygon fill="black" stroke="black" points="402.06,-128.67 392.07,-125.15 397.69,-134.14 402.06,-128.67"/>
<text text-anchor="middle" x="454.7" y="-145.7" font-family="Times,serif" font-size="14.00">Provide</text>
</g>
<!-- 4 -->
<g id="node5" class="node">
<title>4</title>
<ellipse fill="none" stroke="black" cx="557.03" cy="-106.5" rx="83.08" ry="18"/>
<text text-anchor="middle" x="557.03" y="-101.45" font-family="Times,serif" font-size="14.00">File[/tmp/two/four]</text>
</g>
<!-- 2&#45;&gt;4 -->
<g id="edge2" class="edge">
<title>2&#45;&gt;4</title>
<path fill="none" stroke="black" d="M493.26,-177.32C504.77,-164.72 520.77,-147.2 533.86,-132.86"/>
<polygon fill="black" stroke="black" points="536.39,-135.28 540.55,-125.54 531.22,-130.56 536.39,-135.28"/>
<text text-anchor="middle" x="545.6" y="-145.7" font-family="Times,serif" font-size="14.00">Provide</text>
</g>
<!-- 5 -->
<g id="node6" class="node">
<title>5</title>
<ellipse fill="none" stroke="black" cx="431.03" cy="-18" rx="65.68" ry="18"/>
<text text-anchor="middle" x="431.03" y="-12.95" font-family="Times,serif" font-size="14.00">Service[nginx]</text>
</g>
<!-- 3&#45;&gt;5 -->
<g id="edge3" class="edge">
<title>3&#45;&gt;5</title>
<path fill="none" stroke="black" d="M382.08,-88.41C390.77,-76.09 402.66,-59.23 412.54,-45.21"/>
<polygon fill="black" stroke="black" points="415.23,-47.48 418.13,-37.29 409.51,-43.45 415.23,-47.48"/>
<text text-anchor="middle" x="423.62" y="-57.2" font-family="Times,serif" font-size="14.00">Notify</text>
</g>
<!-- 4&#45;&gt;5 -->
<g id="edge4" class="edge">
<title>4&#45;&gt;5</title>
<path fill="none" stroke="black" d="M532.73,-88.82C513.14,-75.37 485.38,-56.32 463.82,-41.51"/>
<polygon fill="black" stroke="black" points="465.87,-38.67 455.64,-35.9 461.91,-44.44 465.87,-38.67"/>
<text text-anchor="middle" x="522.94" y="-57.2" font-family="Times,serif" font-size="14.00">Notify</text>
</g>
<!-- 7 -->
<g id="node8" class="node">
<title>7</title>
<ellipse fill="none" stroke="black" cx="201.03" cy="-195" rx="115.84" ry="18"/>
<text text-anchor="middle" x="201.03" y="-189.95" font-family="Times,serif" font-size="14.00">Exec[/root/${scripts}/yo.sh]</text>
</g>
<!-- 7&#45;&gt;1 -->
<g id="edge6" class="edge">
<title>7&#45;&gt;1</title>
<path fill="none" stroke="black" d="M201.03,-176.91C201.03,-165.26 201.03,-149.55 201.03,-136.02"/>
<polygon fill="black" stroke="black" points="204.53,-136.36 201.03,-126.36 197.53,-136.36 204.53,-136.36"/>
<text text-anchor="middle" x="222.03" y="-145.7" font-family="Times,serif" font-size="14.00">Provide</text>
</g>
</g>
</svg>
