<?xml version="1.0" encoding="UTF-8" standalone="no"?>
<!DOCTYPE svg PUBLIC "-//W3C//DTD SVG 1.1//EN"
 "http://www.w3.org/Graphics/SVG/1.1/DTD/svg11.dtd">
<!-- Generated by graphviz version 12.2.1 (20241206.2353)
 -->
<!-- Pages: 1 -->
<svg width="461pt" height="221pt"
 viewBox="0.00 0.00 460.61 221.00" xmlns="http://www.w3.org/2000/svg" xmlns:xlink="http://www.w3.org/1999/xlink">
<g id="graph0" class="graph" transform="scale(1 1) rotate(0) translate(4 217)">
<polygon fill="white" stroke="none" points="-4,4 -4,-217 456.61,-217 456.61,4 -4,4"/>
<!-- 0 -->
<g id="node1" class="node">
<title>0</title>
<ellipse fill="none" stroke="black" cx="27" cy="-106.5" rx="27" ry="18"/>
<text text-anchor="middle" x="27" y="-101.45" font-family="Times,serif" font-size="14.00">yo</text>
</g>
<!-- 6 -->
<g id="node7" class="node">
<title>6</title>
<ellipse fill="none" stroke="black" cx="64" cy="-18" rx="27" ry="18"/>
<text text-anchor="middle" x="64" y="-12.95" font-family="Times,serif" font-size="14.00">ssh</text>
</g>
<!-- 0&#45;&gt;6 -->
<g id="edge7" class="edge">
<title>0&#45;&gt;6</title>
<path fill="none" stroke="black" d="M31.56,-88.47C34.53,-78.27 38.77,-65.16 43.75,-54 45.09,-50.99 46.62,-47.92 48.22,-44.89"/>
<polygon fill="black" stroke="black" points="51.19,-46.76 53.05,-36.33 45.09,-43.32 51.19,-46.76"/>
<text text-anchor="middle" x="61.38" y="-57.2" font-family="Times,serif" font-size="14.00">Notify</text>
</g>
<!-- 1 -->
<g id="node2" class="node">
<title>1</title>
<ellipse fill="none" stroke="black" cx="116" cy="-106.5" rx="44.19" ry="18"/>
<text text-anchor="middle" x="116" y="-101.45" font-family="Times,serif" font-size="14.00">/tmp/one</text>
</g>
<!-- 1&#45;&gt;6 -->
<g id="edge5" class="edge">
<title>1&#45;&gt;6</title>
<path fill="none" stroke="black" d="M105.97,-88.82C98.47,-76.34 88.07,-59.03 79.49,-44.77"/>
<polygon fill="black" stroke="black" points="82.58,-43.11 74.42,-36.34 76.58,-46.71 82.58,-43.11"/>
<text text-anchor="middle" x="112.28" y="-57.2" font-family="Times,serif" font-size="14.00">Notify</text>
</g>
<!-- 2 -->
<g id="node3" class="node">
<title>2</title>
<ellipse fill="none" stroke="black" cx="330" cy="-195" rx="44.7" ry="18"/>
<text text-anchor="middle" x="330" y="-189.95" font-family="Times,serif" font-size="14.00">/tmp/two</text>
</g>
<!-- 3 -->
<g id="node4" class="node">
<title>3</title>
<ellipse fill="none" stroke="black" cx="244" cy="-106.5" rx="65.68" ry="18"/>
<text text-anchor="middle" x="244" y="-101.45" font-family="Times,serif" font-size="14.00">/tmp/two/three</text>
</g>
<!-- 2&#45;&gt;3 -->
<g id="edge1" class="edge">
<title>2&#45;&gt;3</title>
<path fill="none" stroke="black" d="M313.82,-177.73C301.13,-164.97 283.25,-146.98 268.76,-132.41"/>
<polygon fill="black" stroke="black" points="271.29,-129.98 261.76,-125.36 266.33,-134.92 271.29,-129.98"/>
<text text-anchor="middle" x="315.7" y="-145.7" font-family="Times,serif" font-size="14.00">Provide</text>
</g>
<!-- 4 -->
<g id="node5" class="node">
<title>4</title>
<ellipse fill="none" stroke="black" cx="390" cy="-106.5" rx="62.61" ry="18"/>
<text text-anchor="middle" x="390" y="-101.45" font-family="Times,serif" font-size="14.00">/tmp/two/four</text>
</g>
<!-- 2&#45;&gt;4 -->
<g id="edge2" class="edge">
<title>2&#45;&gt;4</title>
<path fill="none" stroke="black" d="M341.57,-177.32C350.15,-164.96 362,-147.86 371.84,-133.68"/>
<polygon fill="black" stroke="black" points="374.58,-135.88 377.4,-125.67 368.82,-131.89 374.58,-135.88"/>
<text text-anchor="middle" x="386.37" y="-145.7" font-family="Times,serif" font-size="14.00">Provide</text>
</g>
<!-- 5 -->
<g id="node6" class="node">
<title>5</title>
<ellipse fill="none" stroke="black" cx="317" cy="-18" rx="31.9" ry="18"/>
<text text-anchor="middle" x="317" y="-12.95" font-family="Times,serif" font-size="14.00">nginx</text>
</g>
<!-- 3&#45;&gt;5 -->
<g id="edge3" class="edge">
<title>3&#45;&gt;5</title>
<path fill="none" stroke="black" d="M258.08,-88.82C268.99,-75.89 284.26,-57.79 296.53,-43.26"/>
<polygon fill="black" stroke="black" points="298.96,-45.81 302.73,-35.91 293.61,-41.29 298.96,-45.81"/>
<text text-anchor="middle" x="304.66" y="-57.2" font-family="Times,serif" font-size="14.00">Notify</text>
</g>
<!-- 4&#45;&gt;5 -->
<g id="edge4" class="edge">
<title>4&#45;&gt;5</title>
<path fill="none" stroke="black" d="M375.92,-88.82C365.01,-75.89 349.74,-57.79 337.47,-43.26"/>
<polygon fill="black" stroke="black" points="340.39,-41.29 331.27,-35.91 335.04,-45.81 340.39,-41.29"/>
<text text-anchor="middle" x="377.66" y="-57.2" font-family="Times,serif" font-size="14.00">Notify</text>
</g>
<!-- 7 -->
<g id="node8" class="node">
<title>7</title>
<ellipse fill="none" stroke="black" cx="116" cy="-195" rx="91.27" ry="18"/>
<text text-anchor="middle" x="116" y="-189.95" font-family="Times,serif" font-size="14.00">/root/${scripts}/yo.sh</text>
</g>
<!-- 7&#45;&gt;1 -->
<g id="edge6" class="edge">
<title>7&#45;&gt;1</title>
<path fill="none" stroke="black" d="M116,-176.91C116,-165.26 116,-149.55 116,-136.02"/>
<polygon fill="black" stroke="black" points="119.5,-136.36 116,-126.36 112.5,-136.36 119.5,-136.36"/>
<text text-anchor="middle" x="137" y="-145.7" font-family="Times,serif" font-size="14.00">Provide</text>
</g>
</g>
</svg>
